<svg xmlns="http://www.w3.org/2000/svg" viewBox="0 0 1440 1080"><rect width="1440" height="1080" fill="#fafafa"/><text x="720" y="72" text-anchor="middle" font-family="Inter,Pretendard,sans-serif" font-size="54" font-weight="850" fill="#172238">PokéDock V4 구조 시안</text><text x="720" y="110" text-anchor="middle" font-family="Inter,Pretendard,sans-serif" font-size="24" font-weight="650" fill="#172238">후면 경사 폰 거치 + 측면 NFC + 전면 돌출 없는 집중형 스터디 허브</text><rect x="28" y="130" width="760" height="910" rx="20" fill="#fff" stroke="#d7d9de" stroke-width="2"/><rect x="45" y="148" width="220" height="54" rx="12" fill="#2d3038"/><text x="66" y="184" font-family="sans-serif" font-size="30" font-weight="800" fill="#fff">1. 제품 실물 구조</text><text x="52" y="236" font-family="sans-serif" font-size="19" fill="#4f5660">화면이 제품의 중심. 폰은 뒤로 숨기고, NFC는 측면으로 이동.</text><rect x="48" y="300" width="720" height="700" rx="22" fill="#e4cfad"/><ellipse cx="412" cy="878" rx="305" ry="60" fill="#b88e4f" opacity=".20"/><g transform="rotate(4 430 465)"><rect x="365" y="315" width="145" height="280" rx="30" fill="#22262e"/><rect x="377" y="333" width="121" height="244" rx="20" fill="#10171e"/><circle cx="438" cy="455" r="46" fill="none" stroke="#49ae69" stroke-width="11"/><path d="M447 414l-31 50h23l-8 34 33-54h-23z" fill="#49ae69"/></g><path d="M225 805 L322 392 L582 805 Z" fill="#dedfdd"/><rect x="150" y="470" width="535" height="330" rx="30" fill="#f4f3ef"/><rect x="175" y="494" width="485" height="260" rx="18" fill="#1c2025"/><rect x="189" y="508" width="457" height="232" rx="13" fill="#eef4e8"/><text x="210" y="550" font-family="sans-serif" font-size="16" fill="#5d6470">10월 5일 · 월요일</text><text x="210" y="610" font-family="sans-serif" font-size="64" font-weight="850" fill="#24262c">10:24</text><rect x="208" y="633" width="184" height="75" rx="16" fill="#fff"/><text x="228" y="662" font-family="sans-serif" font-size="17" font-weight="800" fill="#24262c">집중 타이머 25:00</text><text x="228" y="690" font-family="sans-serif" font-size="14" fill="#666">오늘 1h 45m · 3 sessions</text><circle cx="535" cy="624" r="74" fill="#dcefd9"/><circle cx="535" cy="640" r="48" fill="#f2dfb7"/><path d="M503 604q10-42 36-54q-2 36-16 58M568 604q-10-42-36-54q2 36 16 58" fill="#6ea16d"/><circle cx="520" cy="638" r="4" fill="#25272d"/><circle cx="550" cy="638" r="4" fill="#25272d"/><path d="M527 654q8 8 16 0" fill="none" stroke="#25272d" stroke-width="3" stroke-linecap="round"/><path d="M155 800h525v28q0 20-20 20H175q-20 0-20-20z" fill="#e4e4e0"/><g><path d="M680 760h76q22 0 22 22v48q0 22-22 22h-76z" fill="#e7e7e3"/><circle cx="730" cy="804" r="27" fill="#faf9f4" stroke="#bcbeba" stroke-width="2"/><text x="716" y="843" font-family="sans-serif" font-size="11" fill="#777">NFC</text></g><text x="170" y="905" font-family="sans-serif" font-size="19" font-weight="750" fill="#27364d">전면 돌출 0–8 mm 목표</text><text x="170" y="935" font-family="sans-serif" font-size="16" fill="#5d6470">앞에 넓은 충전 트레이 없음</text><text x="492" y="905" font-family="sans-serif" font-size="19" font-weight="750" fill="#27364d">폰은 후면 경사 지지</text><text x="492" y="935" font-family="sans-serif" font-size="16" fill="#5d6470">깊은 슬롯 대신 단순 ramp + Qi</text><rect x="808" y="130" width="604" height="430" rx="20" fill="#fff" stroke="#d7d9de" stroke-width="2"/><rect x="825" y="148" width="300" height="54" rx="12" fill="#2d3038"/><text x="847" y="184" font-family="sans-serif" font-size="30" font-weight="800" fill="#fff">2. 상단 / 배치 구조</text><rect x="965" y="270" width="315" height="165" rx="24" fill="#f2f1ed"/><rect x="1030" y="238" width="185" height="70" rx="18" fill="#21262e"/><rect x="987" y="290" width="272" height="112" rx="15" fill="#23272d"/><rect x="999" y="302" width="248" height="88" rx="10" fill="#eef4e8"/><text x="1014" y="335" font-family="sans-serif" font-size="26" font-weight="800" fill="#24262c">10:24</text><rect x="1280" y="330" width="76" height="82" rx="0 18 18 0" fill="#e6e6e2"/><circle cx="1318" cy="370" r="24" fill="#faf9f4" stroke="#bcbeba"/><text x="1304" y="400" font-family="sans-serif" font-size="10">NFC</text><rect x="830" y="205" width="185" height="62" rx="12" fill="#fff" stroke="#aebbd0" stroke-width="2"/><text x="848" y="232" font-family="sans-serif" font-size="18" font-weight="700" fill="#27364d">후면 폰 거치 / Qi</text><text x="848" y="255" font-family="sans-serif" font-size="14" fill="#666">폰은 화면 뒤에서 숨김</text><rect x="1190" y="445" width="195" height="72" rx="12" fill="#fff" stroke="#aebbd0" stroke-width="2"/><text x="1210" y="474" font-family="sans-serif" font-size="18" font-weight="700" fill="#27364d">측면 NFC 포드</text><text x="1210" y="499" font-family="sans-serif" font-size="14" fill="#666">피규어 / 태그 인식</text><text x="842" y="530" font-family="sans-serif" font-size="17" fill="#4f5660">측면 포드는 main base보다 앞으로 나오지 않게 설계.</text><rect x="808" y="582" width="604" height="458" rx="20" fill="#fff" stroke="#d7d9de" stroke-width="2"/><rect x="825" y="600" width="268" height="54" rx="12" fill="#2d3038"/><text x="847" y="636" font-family="sans-serif" font-size="30" font-weight="800" fill="#fff">3. 시스템 구성</text><rect x="995" y="688" width="225" height="66" rx="14" fill="#e8f4ff" stroke="#a7c8dd" stroke-width="2"/><text x="1070" y="717" font-family="sans-serif" font-size="19" font-weight="750" fill="#27364d">Wi‑Fi</text><text x="1020" y="741" font-family="sans-serif" font-size="15" fill="#5d6470">NTP · 날씨 · 웹 설정 · OTA</text><rect x="875" y="790" width="235" height="94" rx="14" fill="#ddf0d9" stroke="#8fbd87" stroke-width="2"/><text x="925" y="824" font-family="sans-serif" font-size="19" font-weight="750" fill="#27364d">ESP32‑S3 HMI</text><text x="902" y="850" font-family="sans-serif" font-size="15" fill="#5d6470">UI · StudyEngine · RTC · Audio</text><rect x="1160" y="790" width="205" height="94" rx="14" fill="#e1edff" stroke="#8eb3e8" stroke-width="2"/><text x="1192" y="824" font-family="sans-serif" font-size="19" font-weight="750" fill="#27364d">ESP32‑C3 Dock</text><text x="1185" y="850" font-family="sans-serif" font-size="15" fill="#5d6470">NFC · ToF · Lux · RGB</text><line x1="1110" y1="837" x2="1155" y2="837" stroke="#45679c" stroke-width="3"/><text x="1114" y="820" font-family="sans-serif" font-size="13" fill="#27364d">ESP‑NOW</text><g font-family="sans-serif"><rect x="840" y="930" width="106" height="62" rx="12" fill="#fff1f0"/><text x="873" y="957" font-size="17" font-weight="800">NFC</text><rect x="960" y="930" width="106" height="62" rx="12" fill="#eef5ff"/><text x="978" y="957" font-size="17" font-weight="800">PHONE</text><rect x="1080" y="930" width="106" height="62" rx="12" fill="#fff8df"/><text x="1102" y="957" font-size="17" font-weight="800">LIGHT</text><rect x="1200" y="930" width="106" height="62" rx="12" fill="#eff8ed"/><text x="1220" y="957" font-size="17" font-weight="800">FOCUS</text></g></svg>